<svg width="320" height="240" viewBox="0 0 320 240" fill="none" xmlns="http://www.w3.org/2000/svg">
  <defs>
    <linearGradient id="bg" x1="32" y1="24" x2="288" y2="216" gradientUnits="userSpaceOnUse">
      <stop stop-color="#FFF9EF"/>
      <stop offset="1" stop-color="#F4E8D7"/>
    </linearGradient>
    <filter id="shadow" x="0" y="0" width="320" height="240" filterUnits="userSpaceOnUse" color-interpolation-filters="sRGB">
      <feDropShadow dx="0" dy="18" stdDeviation="16" flood-color="#122233" flood-opacity="0.16"/>
    </filter>
  </defs>

  <rect x="16" y="16" width="288" height="208" rx="40" fill="url(#bg)"/>

  <g opacity="0.12" stroke="#132139">
    <path d="M16 56H304"/>
    <path d="M16 96H304"/>
    <path d="M16 136H304"/>
    <path d="M16 176H304"/>
    <path d="M56 16V224"/>
    <path d="M96 16V224"/>
    <path d="M136 16V224"/>
    <path d="M176 16V224"/>
    <path d="M216 16V224"/>
    <path d="M256 16V224"/>
  </g>

  <g filter="url(#shadow)">
    <g transform="translate(56 54) rotate(-9 58 44)">
      <rect x="0" y="0" width="116" height="88" rx="22" fill="#FFFDF8" stroke="#D8992C" stroke-width="4"/>
      <rect x="16" y="22" width="46" height="12" rx="6" fill="#D8992C" fill-opacity="0.2"/>
      <rect x="16" y="42" width="70" height="8" rx="4" fill="#D8992C" fill-opacity="0.34"/>
      <rect x="16" y="56" width="54" height="8" rx="4" fill="#D8992C" fill-opacity="0.2"/>
    </g>

    <g transform="translate(104 72) rotate(7 58 44)">
      <rect x="0" y="0" width="116" height="88" rx="22" fill="#FFFDF8" stroke="#D4573F" stroke-width="4"/>
      <rect x="16" y="22" width="40" height="12" rx="6" fill="#D4573F" fill-opacity="0.18"/>
      <rect x="16" y="42" width="76" height="8" rx="4" fill="#D4573F" fill-opacity="0.34"/>
      <rect x="16" y="56" width="64" height="8" rx="4" fill="#D4573F" fill-opacity="0.2"/>
    </g>

    <g transform="translate(150 92)">
      <rect x="0" y="0" width="120" height="92" rx="24" fill="#FFFDF8" stroke="#0C7A80" stroke-width="4"/>
      <rect x="18" y="22" width="44" height="12" rx="6" fill="#0C7A80" fill-opacity="0.2"/>
      <rect x="18" y="44" width="80" height="8" rx="4" fill="#0C7A80" fill-opacity="0.34"/>
      <rect x="18" y="58" width="66" height="8" rx="4" fill="#0C7A80" fill-opacity="0.2"/>
      <circle cx="92" cy="26" r="10" fill="#E7F4F4"/>
      <path d="M88 26H96" stroke="#0C7A80" stroke-width="3" stroke-linecap="round"/>
      <path d="M92 22V30" stroke="#0C7A80" stroke-width="3" stroke-linecap="round"/>
    </g>
  </g>

  <path d="M98 178C120 196 156 202 188 194C212 188 228 174 236 156" stroke="#132139" stroke-opacity="0.24" stroke-width="8" stroke-linecap="round"/>
  <path d="M226 152L241 151L238 166" stroke="#132139" stroke-opacity="0.24" stroke-width="8" stroke-linecap="round" stroke-linejoin="round"/>
</svg>
